<svg width="16" height="16" viewBox="0 0 16 16" fill="none" xmlns="http://www.w3.org/2000/svg">
<path d="M12.6666 5.33325C13.7712 5.33325 14.6666 4.43782 14.6666 3.33325C14.6666 2.22868 13.7712 1.33325 12.6666 1.33325C11.5621 1.33325 10.6666 2.22868 10.6666 3.33325C10.6666 4.43782 11.5621 5.33325 12.6666 5.33325Z" stroke="#353535" stroke-width="1.5" stroke-linecap="round" stroke-linejoin="round"/>
<path d="M9.34671 1.46659C8.90671 1.37992 8.46004 1.33325 8.00004 1.33325C4.32004 1.33325 1.33337 4.31992 1.33337 7.99992C1.33337 11.6799 4.32004 14.6666 8.00004 14.6666C11.68 14.6666 14.6667 11.6799 14.6667 7.99992C14.6667 7.54659 14.62 7.09992 14.5334 6.67325" stroke="#353535" stroke-width="1.5" stroke-linecap="round" stroke-linejoin="round"/>
</svg>
