<svg width="19" height="19" viewBox="0 0 19 19" fill="none" xmlns="http://www.w3.org/2000/svg">
<g clip-path="url(#clip0_364_3546)">
<path d="M16.5488 3.21729C16.442 3.06491 16.2611 2.99626 16.084 3.02256C16.0772 3.02096 16.0705 3.01807 16.0638 3.01711L8.8121 1.9527C8.73286 1.94083 8.65202 1.94949 8.57663 1.97708L2.76855 4.1059C2.76599 4.10687 2.76374 4.10847 2.76117 4.10943C2.75508 4.112 2.7493 4.11585 2.74289 4.11809C2.71113 4.13221 2.68162 4.14889 2.65435 4.16846C2.64601 4.17455 2.63799 4.18065 2.62965 4.18739C2.59981 4.21177 2.57254 4.23839 2.54977 4.26887C2.54848 4.27079 2.54656 4.27176 2.54528 4.27368L0.0927631 7.6286C-0.00123114 7.75724 -0.0256119 7.9247 0.0279616 8.07484C0.0815352 8.22529 0.206326 8.33885 0.360952 8.37863L2.48914 8.92816V14.1896C2.48914 14.401 2.6274 14.588 2.82983 14.6499L10.622 17.0309C10.6246 17.0322 10.6275 17.0312 10.6301 17.0325C10.6718 17.0441 10.7154 17.0514 10.759 17.0518C10.76 17.0518 10.7613 17.0524 10.7626 17.0524C10.8084 17.0524 10.8537 17.0441 10.8986 17.0309C10.9127 17.0264 10.9258 17.0203 10.9403 17.0142C10.9592 17.0072 10.9778 17.002 10.9964 16.9924L16.588 13.8893C16.741 13.8043 16.8356 13.6433 16.8356 13.4684V8.20797L18.7271 7.30011C18.8544 7.23915 18.9484 7.12463 18.9843 6.98797C19.0199 6.85099 18.994 6.70566 18.9128 6.58985L16.5488 3.21729ZM8.79317 2.92279L14.4534 3.75366L10.6987 5.49946L4.75302 4.40393L8.79317 2.92279ZM3.14421 5.08595L9.95703 6.34156L7.9546 9.34552L1.28838 7.62443L3.14421 5.08595ZM3.45153 13.8335V9.17646L8.04474 10.3625C8.08484 10.3724 8.12494 10.3779 8.16504 10.3779C8.3232 10.3779 8.47462 10.2996 8.5654 10.1636L10.2814 7.58979V15.9203L3.45153 13.8335ZM15.8729 13.1849L11.2434 15.7535V8.15279L12.0887 9.94895C12.1436 10.0648 12.2424 10.1546 12.3627 10.1969C12.415 10.2162 12.4695 10.2248 12.5237 10.2248C12.5953 10.2248 12.6662 10.2088 12.7319 10.178L15.8723 8.67088L15.8729 13.1849ZM12.7534 9.10043L11.4038 6.23313L15.9919 4.09981L17.7993 6.67807L12.7534 9.10043Z" fill="black"/>
</g>
<defs>
<clipPath id="clip0_364_3546">
<rect width="19" height="19" fill="white"/>
</clipPath>
</defs>
</svg>
