<svg width="15" height="16" viewBox="0 0 15 16" fill="none" xmlns="http://www.w3.org/2000/svg">
<path d="M14.3456 11.5436V5.84115C14.3456 5.13237 14.0234 4.68133 13.5402 4.19808L10.1574 0.815289C9.35196 0.00986228 8.61097 0.0420795 7.51559 0.0420795H4.26167C3.61733 0.0420795 2.8119 -0.0867888 2.16756 0.106513C1.52322 0.267599 1.03997 0.879723 0.911097 1.52406C0.750012 2.42614 0.87888 3.42487 0.87888 4.32695V7.41978C0.87888 9.54611 0.846663 11.6402 0.87888 13.7665C0.87888 14.7975 1.61987 15.5385 2.65082 15.5707C4.29389 15.6029 5.93696 15.5707 7.58003 15.5707C9.25531 15.5707 10.8984 15.6029 12.5737 15.5707C13.6046 15.5385 14.3456 14.7653 14.3456 13.7343V11.5436ZM9.64192 1.65293L10.0285 2.03954L10.7373 2.74831L12.7025 4.71355H10.3185C9.86744 4.71355 9.64192 4.39138 9.64192 3.97256V1.65293ZM12.6059 14.572C11.285 14.6364 9.93187 14.572 8.61097 14.572H3.10186C2.55417 14.572 1.90983 14.572 1.84539 13.7988C1.81317 13.4122 1.84539 13.0255 1.84539 12.6389V1.71737C1.87761 0.815289 2.87634 0.976374 3.52068 0.976374H6.54908C7.25786 0.976374 7.96663 0.944157 8.64319 0.976374H8.67541V3.94034C8.67541 4.2303 8.70762 4.52025 8.83649 4.77799C9.09423 5.29346 9.6097 5.61563 10.1574 5.68006C10.5762 5.71228 11.0273 5.68006 11.4783 5.68006H13.3791C13.4113 6.19554 13.3791 6.74323 13.3791 7.2587V13.1222C13.3791 13.7021 13.4757 14.5398 12.6059 14.572Z" fill="#576076"/>
<path d="M7.77401 6.3238C7.54849 6.16271 7.32297 6.09828 7.06524 6.35601L6.51755 6.9037L5.42217 7.99908C4.97113 8.45012 5.6799 9.12668 6.09873 8.67564L6.96859 7.80578V9.93211C6.96859 10.1898 7.19411 10.4154 7.45184 10.4154C7.70958 10.4154 7.9351 10.1898 7.9351 9.93211V7.80578L8.80496 8.67564C9.256 9.12668 9.93255 8.41791 9.48152 7.99908L8.48279 7.00036C8.25727 6.77484 8.03175 6.5171 7.77401 6.3238ZM6.13094 12.0906H8.70831C8.96604 12.0906 9.19156 11.8651 9.19156 11.6074C9.19156 11.3497 8.96604 11.1241 8.70831 11.1241H6.13094C5.87321 11.1241 5.64769 11.3497 5.64769 11.6074C5.6799 11.8973 5.87321 12.0906 6.13094 12.0906ZM8.74052 12.6383H6.16316C5.90542 12.6383 5.6799 12.8639 5.6799 13.1216C5.6799 13.3793 5.90542 13.6048 6.16316 13.6048H8.74052C8.99826 13.6048 9.22378 13.3793 9.22378 13.1216C9.22378 12.8639 9.03048 12.6383 8.74052 12.6383Z" fill="#576076"/>
</svg>
