<svg width="16" height="16" viewBox="0 0 16 16" fill="none" xmlns="http://www.w3.org/2000/svg">
<g clip-path="url(#clip0_642_987)">
<path d="M11.4691 4.73514L6.15078 10.0534L4.53116 8.43387C4.4781 8.38081 4.4151 8.33872 4.34578 8.31C4.27645 8.28128 4.20214 8.2665 4.1271 8.2665C4.05206 8.2665 3.97775 8.28128 3.90842 8.31C3.83909 8.33872 3.7761 8.38081 3.72303 8.43387C3.66997 8.48693 3.62788 8.54993 3.59916 8.61926C3.57044 8.68859 3.55566 8.76289 3.55566 8.83793C3.55566 8.91298 3.57044 8.98728 3.59916 9.05661C3.62788 9.12594 3.66997 9.18894 3.72303 9.242L5.74672 11.2657C5.79971 11.3188 5.86269 11.361 5.93204 11.3897C6.00138 11.4184 6.07572 11.4332 6.15078 11.433C6.22584 11.4331 6.30017 11.4184 6.36951 11.3897C6.43885 11.361 6.50184 11.3188 6.55484 11.2657L12.2773 5.5432C12.331 5.4903 12.3738 5.42727 12.4031 5.35776C12.4324 5.28824 12.4476 5.21362 12.4479 5.13819C12.4482 5.06275 12.4336 4.98801 12.4048 4.91826C12.3761 4.84851 12.3339 4.78514 12.2805 4.7318C12.2272 4.67847 12.1638 4.63622 12.0941 4.6075C12.0243 4.57878 11.9496 4.56415 11.8741 4.56446C11.7987 4.56477 11.7241 4.58001 11.6546 4.6093C11.5851 4.6386 11.522 4.68137 11.4691 4.73514Z" fill="#576076"/>
<path d="M8 0C3.58876 0 0 3.58876 0 8C0 12.4112 3.58876 16 8 16C12.4112 16 16 12.4112 16 8C16 3.58876 12.4112 0 8 0ZM8 14.8571C4.21898 14.8571 1.14286 11.781 1.14286 8C1.14286 4.21898 4.21898 1.14286 8 1.14286C11.781 1.14286 14.8571 4.21898 14.8571 8C14.8571 11.781 11.781 14.8571 8 14.8571Z" fill="#576076"/>
</g>
<defs>
<clipPath id="clip0_642_987">
<rect width="16" height="16" fill="white"/>
</clipPath>
</defs>
</svg>
