<svg width="17" height="17" viewBox="0 0 17 17" fill="none" xmlns="http://www.w3.org/2000/svg">
<path fill-rule="evenodd" clip-rule="evenodd" d="M12.2456 15.4497C10.1786 17.5168 6.8214 17.5168 4.7544 15.4497L1.55025 12.2456C-0.516749 10.1786 -0.516749 6.82142 1.55025 4.75442L4.7544 1.55025C6.8214 -0.51675 10.1786 -0.51675 12.2456 1.55025L15.4497 4.75442C17.5167 6.82142 17.5167 10.1786 15.4497 12.2456L12.2456 15.4497Z" fill="url(#paint0_linear_441_607)"/>
<path fill-rule="evenodd" clip-rule="evenodd" d="M12.1945 15.299L15.4305 12.0815C16.5089 11.009 17.027 9.60247 16.9993 8.20993L13.9736 4.53271L13.2171 5.35464L12.685 6.38537L12.3065 7.87547L11.5921 9.25433L11.0736 10.1457L10.8497 10.6332L10.3312 11.009L9.99487 10.9673L9.36475 9.63055L8.62229 8.20993L8.34216 7.94532L7.73976 8.98972L7.36169 10.104L6.80106 11.1066L6.04492 12.1096L9.93906 16.6221C10.7654 16.3855 11.536 15.9395 12.1945 15.299Z" fill="url(#paint1_linear_441_607)"/>
<path fill-rule="evenodd" clip-rule="evenodd" d="M6.59138 4.57459H7.49054L8.48653 7.20888L9.49619 4.57459H10.3953L9.09484 7.86044L10.3953 10.9796L12.9406 4.5332H13.9779L10.824 12.0887H9.994L8.5002 8.52566L6.99236 12.0887H6.16231L3.02246 4.5332H4.04617L6.60506 10.9796L7.89152 7.86044L6.59138 4.57459Z" fill="white"/>
<defs>
<linearGradient id="paint0_linear_441_607" x1="0" y1="0" x2="1700" y2="1700" gradientUnits="userSpaceOnUse">
<stop stop-color="#E5C27A"/>
<stop offset="1" stop-color="#C0A368"/>
</linearGradient>
<linearGradient id="paint1_linear_441_607" x1="199.649" y1="315.072" x2="89.1757" y2="142.764" gradientUnits="userSpaceOnUse">
<stop stop-color="#E5C27A"/>
<stop offset="1" stop-color="#C0A368"/>
</linearGradient>
</defs>
</svg>
