<svg width="18" height="18" viewBox="0 0 18 18" fill="none" xmlns="http://www.w3.org/2000/svg">
<path d="M9.60987 11.3396L8.51078 10.2405C8.35779 10.0875 8.12594 10.0875 7.97295 10.2405C7.81996 10.3935 7.81996 10.6254 7.97295 10.7784L9.34095 12.1464C9.41768 12.2231 9.53077 12.2611 9.60987 12.2611C9.66575 12.2611 9.71456 12.2517 9.75947 12.2318C9.80417 12.2119 9.84247 12.1827 9.87879 12.1464L12.6482 9.37699C12.8012 9.224 12.8012 8.99215 12.6482 8.83916C12.4952 8.68617 12.2633 8.68617 12.1103 8.83916L9.60987 11.3396Z" fill="#576076" stroke="#576076" stroke-width="0.1"/>
<path d="M4.33775 1.85088V1.85079L4.33463 1.85098C3.77732 1.88581 3.3535 2.30543 3.3535 2.83513V3.25226H2.50262C1.64158 3.25226 0.951145 3.94123 0.951145 4.77036V15.5466C0.917107 16.3787 1.64394 17.0657 2.50262 17.0657H10.6439C11.5057 17.0657 12.1954 16.376 12.1954 15.5142V14.5672L14.2121 16.5839C14.8315 17.2033 15.8642 17.2381 16.5183 16.5839C17.1697 15.9326 17.2074 14.8994 16.5512 14.2772L14.3064 12.0324C14.4684 11.6379 14.5979 11.21 14.6309 10.7804C14.7321 9.6338 14.395 8.48627 13.6521 7.60808C13.2531 7.10954 12.7565 6.74221 12.1954 6.47378V4.77036C12.1954 3.94123 11.505 3.25226 10.6439 3.25226H9.79305V2.83513C9.79305 2.30584 9.36907 1.88425 8.8088 1.88425H7.84405C7.66064 1.34883 7.15157 0.95 6.57327 0.95C5.96266 0.95 5.48564 1.34824 5.3032 1.85088H4.33775ZM13.8641 10.6708L13.864 10.6713C13.7327 12.0173 12.8811 13.1337 11.7016 13.6291H11.6783H11.6678L11.6582 13.6333C11.1339 13.8627 10.5754 13.9291 9.94706 13.8962C7.97348 13.6982 6.55915 11.9549 6.75647 9.98063C6.85529 9.05867 7.28326 8.23593 7.94136 7.64364L7.94141 7.64369L7.94327 7.64183L7.97534 7.60976C8.69913 6.98533 9.68595 6.65671 10.6723 6.75534L10.6728 6.75539C11.0327 6.7881 11.3608 6.88617 11.6911 7.01817C12.2193 7.28249 12.68 7.61199 13.0747 8.07232C13.6669 8.79636 13.9627 9.75056 13.8641 10.6708ZM11.4281 14.6103V15.581H11.4279L11.4283 15.5855C11.4432 15.7495 11.3611 15.9272 11.2143 16.066C11.0682 16.2042 10.8633 16.2984 10.6439 16.2984H2.50262C2.05915 16.2984 1.6851 15.9499 1.6851 15.5476V4.77036C1.6851 4.36554 2.0284 4.01958 2.46925 4.01958H3.32013V4.4367C3.32013 4.96599 3.74411 5.38758 4.30438 5.38758H8.8088C9.33451 5.38758 9.79305 4.96713 9.79305 4.4367V4.01958H10.6439C11.0848 4.01958 11.4281 4.36554 11.4281 4.77036V6.17245C11.2098 6.11203 10.9624 6.05542 10.7134 6.055C9.50466 5.92149 8.3969 6.32214 7.52327 7.02262H3.53696C3.4255 7.02262 3.32873 7.05999 3.2597 7.12902C3.19067 7.19805 3.1533 7.29482 3.1533 7.40628C3.1533 7.51774 3.19067 7.61451 3.2597 7.68354C3.32873 7.75257 3.4255 7.78994 3.53696 7.78994H6.80627C6.60696 8.05968 6.45624 8.3337 6.30758 8.65755H3.57033C3.45887 8.65755 3.3621 8.69492 3.29307 8.76395C3.22404 8.83298 3.18667 8.92975 3.18667 9.04121C3.18667 9.15267 3.22404 9.24944 3.29307 9.31847C3.3621 9.3875 3.45887 9.42487 3.57033 9.42487H6.113C6.1041 9.47058 6.09397 9.51613 6.08368 9.56242C6.07619 9.5961 6.06862 9.63017 6.06137 9.66497C6.04032 9.766 6.02278 9.87013 6.02278 9.97546V10.2925H3.57033C3.45887 10.2925 3.3621 10.3299 3.29307 10.3989C3.22404 10.4679 3.18667 10.5647 3.18667 10.6761C3.18667 10.7876 3.22404 10.8844 3.29307 10.9534C3.3621 11.0224 3.45887 11.0598 3.57033 11.0598H6.02795C6.06139 11.3423 6.14053 11.603 6.22366 11.8767C6.22877 11.8936 6.2339 11.9105 6.23904 11.9274H3.57033C3.45887 11.9274 3.3621 11.9648 3.29307 12.0338C3.22404 12.1029 3.18667 12.1996 3.18667 12.3111C3.18667 12.4225 3.22404 12.5193 3.29307 12.5883C3.3621 12.6574 3.45887 12.6947 3.57033 12.6947H6.61049C6.79048 13.0169 7.0209 13.2876 7.27844 13.529H3.57033C3.45887 13.529 3.3621 13.5664 3.29307 13.6354C3.22404 13.7044 3.18667 13.8012 3.18667 13.9127C3.18667 14.0241 3.22404 14.1209 3.29307 14.1899C3.3621 14.2589 3.45887 14.2963 3.57033 14.2963H8.39663C8.86582 14.5294 9.33546 14.6628 9.87031 14.7297C10.3914 14.7948 10.9111 14.7345 11.4281 14.6103ZM14.7833 16.0461L14.783 16.0458L12.6924 13.9879C13.1908 13.6662 13.6009 13.256 13.9226 12.7576L15.9805 14.8155L15.9805 14.8156L15.9821 14.817C16.3612 15.1646 16.361 15.6989 16.0139 16.0461C15.6664 16.3936 15.1308 16.3936 14.7833 16.0461ZM4.12082 2.83513C4.12082 2.78608 4.14522 2.7409 4.18624 2.70671C4.22753 2.67231 4.283 2.65157 4.33775 2.65157H5.63902C5.75048 2.65157 5.84725 2.6142 5.91628 2.54517C5.98531 2.47614 6.02268 2.37937 6.02268 2.26791C6.02268 1.96556 6.26338 1.75069 6.57327 1.75069C6.8848 1.75069 7.15723 2.00041 7.15723 2.26791C7.15723 2.37937 7.1946 2.47614 7.26363 2.54517C7.33266 2.6142 7.42943 2.65157 7.54089 2.65157H8.84216C8.89691 2.65157 8.95238 2.67231 8.99367 2.70671C9.03469 2.7409 9.05909 2.78608 9.05909 2.83513V4.4367C9.05909 4.48575 9.03469 4.53093 8.99367 4.56512C8.95238 4.59953 8.89691 4.62026 8.84216 4.62026H4.33775C4.283 4.62026 4.22753 4.59953 4.18624 4.56512C4.14522 4.53093 4.12082 4.48575 4.12082 4.4367V2.83513Z" fill="#576076" stroke="#576076" stroke-width="0.1"/>
</svg>
