<svg width="17" height="17" viewBox="0 0 17 17" fill="none" xmlns="http://www.w3.org/2000/svg">
<path d="M15.2502 9.57151V12.4826H12.2501V12.3266C12.2501 10.8171 11.3876 9.50811 10.137 8.88699C10.7786 8.42652 11.2257 7.7036 11.3277 6.87306C11.6669 6.73177 12.0263 6.66011 12.4002 6.66011C13.9686 6.66011 15.2502 7.96341 15.2502 9.57151ZM12.4002 0.85C10.8049 0.85 9.52024 2.19004 9.55055 3.80977C8.87692 3.53675 8.12344 3.53666 7.4496 3.80975C7.47993 2.19319 6.19831 0.85 4.59994 0.85C3.02567 0.85 1.74994 2.15595 1.74994 3.75506C1.74994 4.73612 2.22959 5.60553 2.96312 6.13194C1.71245 6.75304 0.85 8.0619 0.85 9.57151V12.9388C0.85 13.1877 1.04844 13.395 1.30004 13.395H4.74997V15.6938C4.74997 15.9429 4.94879 16.15 5.20001 16.15H11.8C12.0516 16.15 12.2501 15.9428 12.2501 15.6938V13.395H15.7003C15.9517 13.395 16.15 13.1876 16.15 12.9388V9.57151C16.15 8.0619 15.2876 6.75304 14.0372 6.13194C14.7705 5.60552 15.2502 4.73609 15.2502 3.75506C15.2502 2.15596 13.9748 0.85 12.4002 0.85ZM12.4001 1.76216C13.4725 1.76216 14.35 2.65342 14.35 3.75502C14.35 4.85676 13.4724 5.74801 12.4001 5.74801C11.8806 5.74801 11.3961 5.54325 11.0278 5.16922C10.9175 4.95415 10.7813 4.75386 10.6223 4.57301C10.5085 4.31542 10.45 4.0409 10.45 3.75502C10.45 2.65348 11.3277 1.76216 12.4001 1.76216ZM10.4489 6.55762C10.4139 7.67521 9.5296 8.50309 8.50015 8.50309C7.4241 8.50309 6.54999 7.60672 6.54999 6.51011C6.54999 5.40869 7.42773 4.5174 8.50015 4.5174C9.58193 4.5174 10.4753 5.42815 10.4489 6.55762ZM2.64999 3.75506C2.64999 2.65346 3.52777 1.76219 4.59985 1.76219C5.67226 1.76219 6.55 2.65348 6.55 3.75506C6.55 4.04104 6.49175 4.31553 6.37772 4.57298C6.21871 4.75383 6.08247 4.95414 5.97212 5.16926C5.60384 5.54329 5.11968 5.74804 4.59985 5.74804C3.52781 5.74804 2.64999 4.85674 2.64999 3.75506ZM1.74981 12.4826V9.57151C1.74981 7.96341 3.03139 6.66011 4.59985 6.66011C4.97394 6.66011 5.33313 6.73177 5.67233 6.87305C5.77432 7.70358 6.22143 8.42654 6.86301 8.88699C5.61237 9.50811 4.74994 10.8171 4.74994 12.3266V12.4826H1.74981ZM11.3502 15.2378H5.65008V12.3266C5.65008 10.7185 6.93165 9.41538 8.50015 9.41538C10.0687 9.41538 11.3502 10.7186 11.3502 12.3266V15.2378Z" fill="#576076" stroke="#576076" stroke-width="0.3"/>
</svg>
